<?xml version="1.0" encoding="UTF-8" standalone="no"?>
<!-- Created with Inkscape (http://www.inkscape.org/) -->

<svg
   width="2083.0171"
   height="2497.0388"
   viewBox="0 0 551.1316 660.67487"
   version="1.1"
   id="svg5"
   inkscape:version="1.1 (c68e22c387, 2021-05-23)"
   sodipodi:docname="prism.svg"
   inkscape:export-filename="E:\PROJECT\SITE\PERSONAL\PRISM\LOGO\prism.png"
   inkscape:export-xdpi="90"
   inkscape:export-ydpi="90"
   xmlns:inkscape="http://www.inkscape.org/namespaces/inkscape"
   xmlns:sodipodi="http://sodipodi.sourceforge.net/DTD/sodipodi-0.dtd"
   xmlns:xlink="http://www.w3.org/1999/xlink"
   xmlns="http://www.w3.org/2000/svg"
   xmlns:svg="http://www.w3.org/2000/svg">
  <sodipodi:namedview
     id="namedview7"
     pagecolor="#ffffff"
     bordercolor="#999999"
     borderopacity="1"
     inkscape:pageshadow="0"
     inkscape:pageopacity="0"
     inkscape:pagecheckerboard="0"
     inkscape:document-units="mm"
     showgrid="false"
     units="px"
     width="2000mm"
     fit-margin-top="100"
     fit-margin-left="100"
     fit-margin-right="100"
     fit-margin-bottom="100"
     inkscape:zoom="0.25"
     inkscape:cx="796"
     inkscape:cy="1482"
     inkscape:window-width="2874"
     inkscape:window-height="1617"
     inkscape:window-x="144"
     inkscape:window-y="273"
     inkscape:window-maximized="0"
     inkscape:current-layer="layer1" />
  <defs
     id="defs2">
    <linearGradient
       inkscape:collect="always"
       id="linearGradient1288">
      <stop
         style="stop-color:#f826f5;stop-opacity:1"
         offset="0"
         id="stop1284" />
      <stop
         style="stop-color:#088bf8;stop-opacity:1"
         offset="1"
         id="stop1286" />
    </linearGradient>
    <rect
       x="90"
       y="1874"
       width="1818"
       height="522"
       id="rect4226" />
    <linearGradient
       inkscape:collect="always"
       xlink:href="#linearGradient1288"
       id="linearGradient1290"
       x1="-48.543716"
       y1="767.74951"
       x2="449.82394"
       y2="767.55853"
       gradientUnits="userSpaceOnUse" />
    <linearGradient
       inkscape:collect="always"
       xlink:href="#linearGradient1288"
       id="linearGradient11117"
       gradientUnits="userSpaceOnUse"
       x1="-48.543716"
       y1="767.74951"
       x2="449.82394"
       y2="767.55853" />
    <linearGradient
       inkscape:collect="always"
       xlink:href="#linearGradient1288"
       id="linearGradient11119"
       gradientUnits="userSpaceOnUse"
       x1="-48.543716"
       y1="767.74951"
       x2="449.82394"
       y2="767.55853" />
    <linearGradient
       inkscape:collect="always"
       xlink:href="#linearGradient1288"
       id="linearGradient11121"
       gradientUnits="userSpaceOnUse"
       x1="-48.543716"
       y1="767.74951"
       x2="449.82394"
       y2="767.55853" />
    <linearGradient
       inkscape:collect="always"
       xlink:href="#linearGradient1288"
       id="linearGradient11123"
       gradientUnits="userSpaceOnUse"
       x1="-48.543716"
       y1="767.74951"
       x2="449.82394"
       y2="767.55853" />
    <linearGradient
       inkscape:collect="always"
       xlink:href="#linearGradient1288"
       id="linearGradient11125"
       gradientUnits="userSpaceOnUse"
       x1="-48.543716"
       y1="767.74951"
       x2="449.82394"
       y2="767.55853" />
  </defs>
  <g
     inkscape:label="Calque 1"
     inkscape:groupmode="layer"
     id="layer1"
     transform="translate(0.78867283,2.6112207)">
    <image
       width="466.60001"
       height="466.60001"
       preserveAspectRatio="none"
       xlink:href="logo.png"
       id="image832"
       x="41.477123"
       y="23.847113" />
    <image
       xlink:href=""
       id="container"
       style="display:none"
       x="83.61792"
       y="803.30963"
       width="127"
       height="127" />
    <image
       xlink:href=""
       id="icon_container"
       style="display:none"
       x="11.651256"
       y="765.20959"
       width="0"
       height="0" />
    <g
       id="g1252"
       style="fill:url(#linearGradient1290);fill-opacity:1"
       transform="translate(74.213376,-192.5813)">
      <path
         id="path166563"
         style="font-style:normal;font-weight:500;font-size:72px;line-height:1;font-family:'Raleway Medium Alt1';font-variant-ligatures:none;text-align:center;text-anchor:middle;fill:url(#linearGradient11117);fill-opacity:1"
         d="m 33.141563,729.7947 c -1.81519,-4.45553 -4.29054,-8.41606 -7.42595,-12.04649 -3.13536,-3.63047 -6.93084,-6.43582 -11.22137,-8.58107 -4.29054,-2.14529 -9.0761896,-3.30041 -14.19178959,-3.30041 H -48.543715 v 46.86588 h 14.851898 v -33.66422 h 33.16916041 c 2.80534999,0 5.44565999,0.66006 8.08600999,1.81519 2.4752996,1.32017 4.7855896,2.97041 6.7658796,5.11565 1.98024,2.31029 3.46542,4.78559 4.62054,7.756 1.15518,2.97036 1.81524,6.27078 1.81524,9.57119 0,3.30042 -0.49485,6.43583 -1.48518,9.40619 -1.15517,3.13541 -2.4753,5.61071 -4.12553,7.92101 -1.81524,2.31029 -3.96048,3.96048 -6.4358296,5.28065 -2.4753,1.32018 -5.28065,1.81524 -8.25100999,1.81524 H -48.543715 v 55.28195 h 14.851898 V 780.95117 H 1.2925734 c 5.11566,0 9.7362496,-0.99012 14.0267296,-3.13541 4.29059,-1.98024 7.92101,-4.7856 10.89137,-8.41607 2.97041,-3.46542 5.2807,-7.42589 7.09589,-12.04649 1.65023,-4.45559 2.47535,-9.07618 2.47535,-14.02678 0,-4.62059 -0.99012,-9.07613 -2.64035,-13.53172 z"
         stroke-width="0"
         stroke-linejoin="miter"
         stroke-miterlimit="2"
         fill="#000000"
         stroke="#000000" />
      <path
         id="path166565"
         style="font-style:normal;font-weight:500;font-size:72px;line-height:1;font-family:'Raleway Medium Alt1';font-variant-ligatures:none;text-align:center;text-anchor:middle;fill:url(#linearGradient11119);fill-opacity:1"
         d="m 122.20553,778.14582 c 3.63047,-0.82512 7.09589,-2.4753 10.06624,-4.7856 2.97042,-2.14529 5.61072,-4.78559 7.75601,-7.92101 2.14524,-2.97035 3.79548,-6.43583 4.9506,-10.2313 1.15517,-3.79548 1.81523,-7.75595 1.81523,-11.88149 0,-4.62059 -0.99012,-9.07613 -2.64035,-13.53172 -1.81518,-4.45553 -4.29053,-8.41606 -7.4259,-12.04649 -3.13541,-3.63047 -6.93088,-6.43582 -11.22142,-8.58107 -4.29053,-2.14529 -9.07613,-3.30041 -14.19178,-3.30041 H 61.147813 v 117.16473 h 14.8519 v -42.08029 h 14.85184 l -8.25101,-13.20166 h -6.60083 v -48.68112 h 34.489327 c 2.80536,0 5.44571,0.66006 8.08601,1.98024 2.64036,1.32018 4.7856,2.97036 6.76589,5.28066 1.98024,2.31029 3.46542,4.78559 4.62054,7.75595 1.15517,2.97041 1.81523,6.10577 1.81523,9.24118 0,3.30042 -0.49485,6.27078 -1.48517,9.24119 -1.15513,3.13536 -2.4753,5.61066 -4.12554,7.92095 -1.81523,2.3103 -3.96047,4.12554 -6.43577,5.28071 -2.47535,1.32013 -5.28071,1.98024 -8.25107,1.98024 H 98.442503 l 8.581117,13.20166 26.73333,42.08029 h 16.83214 z"
         stroke-width="0"
         stroke-linejoin="miter"
         stroke-miterlimit="2"
         fill="#000000"
         stroke="#000000" />
      <path
         id="path166567"
         style="font-style:normal;font-weight:500;font-size:72px;line-height:1;font-family:'Raleway Medium Alt1';font-variant-ligatures:none;text-align:center;text-anchor:middle;fill:url(#linearGradient11121);fill-opacity:1"
         d="m 176.31855,823.03146 h 14.8519 V 705.86673 h -14.8519 z"
         stroke-width="0"
         stroke-linejoin="miter"
         stroke-miterlimit="2"
         fill="#000000"
         stroke="#000000" />
      <path
         id="path166569"
         style="font-style:normal;font-weight:500;font-size:72px;line-height:1;font-family:'Raleway Medium Alt1';font-variant-ligatures:none;text-align:center;text-anchor:middle;fill:url(#linearGradient11123);fill-opacity:1"
         d="m 294.87484,730.45482 6.93088,-12.04654 c -4.95059,-3.96048 -10.72636,-7.2609 -16.99713,-9.73625 -6.43583,-2.31024 -13.53172,-3.63042 -21.45273,-3.63042 -6.10577,0 -11.71648,0.82512 -16.83214,2.3103 -5.2806,1.48518 -9.73619,3.63042 -13.36666,6.60083 -3.79548,2.97036 -6.76584,6.60083 -8.74613,10.89137 -2.14524,4.29053 -3.13536,9.24113 -3.13536,14.85184 0,4.62059 0.66006,8.58107 2.3103,11.88149 1.48518,3.30041 3.79547,6.10577 6.76583,8.41606 2.97036,2.3103 6.76589,4.29054 11.38643,5.94077 4.45559,1.65019 9.73624,3.30042 15.67696,4.6206 5.28071,1.32017 10.0663,2.6403 14.35684,3.96047 4.29053,1.32018 7.75595,2.64036 10.72636,4.29054 2.80536,1.65023 4.9506,3.63047 6.43583,5.94077 1.48518,2.31029 2.31024,4.9506 2.31024,8.25101 0,5.94077 -2.31024,10.39631 -6.93083,13.36672 -4.6206,2.97036 -11.22143,4.45554 -19.47249,4.45554 -4.62059,0 -8.91113,-0.32991 -13.03661,-1.32018 -4.12553,-0.99012 -7.92101,-2.14524 -11.55148,-3.63042 -3.63047,-1.48523 -6.76583,-3.13541 -9.57119,-5.11565 -2.80536,-1.81524 -5.11565,-3.63048 -6.76583,-5.61072 l -7.0959,12.54155 c 6.60084,5.44571 13.86173,9.57124 21.94774,12.3766 8.08601,2.80536 16.66708,4.12548 25.74321,4.12548 5.94082,0 11.55148,-0.49485 16.83214,-1.81518 5.11565,-1.32018 9.57124,-3.30042 13.36671,-5.94077 3.79548,-2.64036 6.76584,-6.10577 9.07613,-10.23131 2.14525,-4.12548 3.30042,-9.07613 3.30042,-14.68684 0,-5.28065 -0.99012,-9.73619 -2.80536,-13.36666 -1.81523,-3.63048 -4.45559,-6.60083 -7.921,-9.24119 -3.46542,-2.4753 -7.59096,-4.62059 -12.54155,-6.27077 -4.95065,-1.65024 -10.39636,-3.30042 -16.33708,-4.62059 -5.28065,-1.15513 -9.90125,-2.3103 -13.69672,-3.46542 -3.96053,-0.99012 -7.09589,-2.3103 -9.73619,-3.79548 -2.64041,-1.48518 -4.45559,-3.30041 -5.61077,-5.44571 -1.32012,-1.98024 -1.81523,-4.62059 -1.81523,-7.92101 0,-5.94071 1.98029,-10.5613 6.27082,-14.02672 4.29054,-3.30042 10.89137,-5.11566 20.1325,-5.11566 3.46547,0 6.76589,0.49486 10.0663,1.15513 3.30042,0.66011 6.27078,1.65023 9.07613,2.80535 2.64036,1.15518 5.11566,2.4753 7.42595,3.79548 2.14524,1.48518 3.96048,2.97041 5.28066,4.45559 z"
         stroke-width="0"
         stroke-linejoin="miter"
         stroke-miterlimit="2"
         fill="#000000"
         stroke="#000000" />
      <path
         id="path166571"
         style="font-style:normal;font-weight:500;font-size:72px;line-height:1;font-family:'Raleway Medium Alt1';font-variant-ligatures:none;text-align:center;text-anchor:middle;fill:url(#linearGradient11125);fill-opacity:1"
         d="m 333.49655,705.86673 v 117.16473 h 14.8519 v -90.5964 l 26.23827,46.86588 7.92106,-13.53167 -33.33421,-59.90254 z m 100.66271,0 -42.5754,76.07456 -7.75596,13.53172 3.63048,6.43578 h 8.41606 l 38.94488,-69.47373 v 90.5964 h 14.85189 V 705.86673 Z"
         stroke-width="0"
         stroke-linejoin="miter"
         stroke-miterlimit="2"
         fill="#000000"
         stroke="#000000" />
    </g>
  </g>
</svg>
